# This file uses centimeters as units for non-parametric coordinates.

mtllib 1.mtl
g default
v -8.606027 -8.606027 8.606027
v 8.606027 -8.606027 8.606027
v -8.606027 8.606027 8.606027
v 8.606027 8.606027 8.606027
v -8.606027 8.606027 -8.606027
v 8.606027 8.606027 -8.606027
v -8.606027 -8.606027 -8.606027
v 8.606027 -8.606027 -8.606027
vt 0.749619 0.001325
vt 0.873932 0.001325
vt 0.749619 0.125638
vt 0.873932 0.125638
vt 0.749619 0.249951
vt 0.873932 0.249951
vt 0.749619 0.374263
vt 0.873932 0.374263
vt 0.749619 0.498576
vt 0.873932 0.498576
vt 0.998245 0.001325
vt 0.998245 0.125638
vt 0.625306 0.001325
vt 0.625306 0.125638
vn 0.000000 0.000000 1.000000
vn 0.000000 0.000000 1.000000
vn 0.000000 0.000000 1.000000
vn 0.000000 0.000000 1.000000
vn 0.000000 1.000000 0.000000
vn 0.000000 1.000000 0.000000
vn 0.000000 1.000000 0.000000
vn 0.000000 1.000000 0.000000
vn 0.000000 0.000000 -1.000000
vn 0.000000 0.000000 -1.000000
vn 0.000000 0.000000 -1.000000
vn 0.000000 0.000000 -1.000000
vn 0.000000 -1.000000 0.000000
vn 0.000000 -1.000000 0.000000
vn 0.000000 -1.000000 0.000000
vn 0.000000 -1.000000 0.000000
vn 1.000000 0.000000 0.000000
vn 1.000000 0.000000 0.000000
vn 1.000000 0.000000 0.000000
vn 1.000000 0.000000 0.000000
vn -1.000000 0.000000 0.000000
vn -1.000000 0.000000 0.000000
vn -1.000000 0.000000 0.000000
vn -1.000000 0.000000 0.000000
s off
g pCube5
usemtl initialShadingGroup
f 1/1/1 2/2/2 4/4/3 3/3/4
f 3/3/5 4/4/6 6/6/7 5/5/8
f 5/5/9 6/6/10 8/8/11 7/7/12
f 7/7/13 8/8/14 2/10/15 1/9/16
f 2/2/17 8/11/18 6/12/19 4/4/20
f 7/13/21 1/1/22 3/3/23 5/14/24
