# This file uses centimeters as units for non-parametric coordinates.

mtllib Block.mtl
g default
v 4.865409 17.370190 5.505389
v 15.876187 17.370190 5.505389
v 4.865409 28.380970 5.505389
v 15.876187 28.380970 5.505389
v 4.865409 28.380970 -5.505389
v 15.876187 28.380970 -5.505389
v 4.865409 17.370190 -5.505389
v 15.876187 17.370190 -5.505389
vt 0.736718 0.001198
vt 0.867655 0.001198
vt 0.736718 0.132135
vt 0.867655 0.132135
vt 0.736718 0.263072
vt 0.867655 0.263072
vt 0.736718 0.394009
vt 0.867655 0.394009
vt 0.736718 0.524946
vt 0.867655 0.524946
vt 0.998592 0.001198
vt 0.998592 0.132135
vt 0.605781 0.001198
vt 0.605781 0.132135
vn 0.000000 0.000000 1.000000
vn 0.000000 0.000000 1.000000
vn 0.000000 0.000000 1.000000
vn 0.000000 0.000000 1.000000
vn 0.000000 1.000000 0.000000
vn 0.000000 1.000000 0.000000
vn 0.000000 1.000000 0.000000
vn 0.000000 1.000000 0.000000
vn 0.000000 0.000000 -1.000000
vn 0.000000 0.000000 -1.000000
vn 0.000000 0.000000 -1.000000
vn 0.000000 0.000000 -1.000000
vn 0.000000 -1.000000 0.000000
vn 0.000000 -1.000000 0.000000
vn 0.000000 -1.000000 0.000000
vn 0.000000 -1.000000 0.000000
vn 1.000000 0.000000 0.000000
vn 1.000000 0.000000 0.000000
vn 1.000000 0.000000 0.000000
vn 1.000000 0.000000 0.000000
vn -1.000000 0.000000 0.000000
vn -1.000000 0.000000 0.000000
vn -1.000000 0.000000 0.000000
vn -1.000000 0.000000 0.000000
s off
g pCube1
usemtl initialShadingGroup
f 1/1/1 2/2/2 4/4/3 3/3/4
f 3/3/5 4/4/6 6/6/7 5/5/8
f 5/5/9 6/6/10 8/8/11 7/7/12
f 7/7/13 8/8/14 2/10/15 1/9/16
f 2/2/17 8/11/18 6/12/19 4/4/20
f 7/13/21 1/1/22 3/3/23 5/14/24
g default
v 5.314783 3.205468 -5.505389
v 5.314783 3.205468 5.505389
v 5.314783 14.216248 -5.505389
v 5.314783 14.216248 5.505389
v 16.325562 3.205468 -5.505389
v 16.325562 3.205468 5.505389
vt 0.671864 0.597403
vt 0.540927 0.597404
vt 0.671863 0.466466
vt 0.540926 0.466467
vt 0.671861 0.281293
vt 0.540924 0.281294
vt 0.671860 0.150356
vt 0.540923 0.150357
vt 0.409990 0.597405
vt 0.802801 0.597402
vn -1.000000 0.000000 0.000000
vn -1.000000 0.000000 0.000000
vn -1.000000 0.000000 0.000000
vn -1.000000 0.000000 0.000000
vn 0.707107 0.707107 0.000000
vn 0.707107 0.707107 0.000000
vn 0.707107 0.707107 0.000000
vn 0.707107 0.707107 0.000000
vn 0.000000 -1.000000 0.000000
vn 0.000000 -1.000000 0.000000
vn 0.000000 -1.000000 0.000000
vn 0.000000 -1.000000 0.000000
vn 0.000000 0.000000 1.000000
vn 0.000000 0.000000 1.000000
vn 0.000000 0.000000 1.000000
vn 0.000000 0.000000 -1.000000
vn 0.000000 0.000000 -1.000000
vn 0.000000 0.000000 -1.000000
s off
g pCube3
usemtl initialShadingGroup
f 9/15/25 10/16/26 12/18/27 11/17/28
f 12/18/29 14/20/30 13/19/31 11/17/32
f 13/19/33 14/20/34 10/22/35 9/21/36
f 10/16/37 14/23/38 12/18/39
f 13/24/40 9/15/41 11/17/42
g default
v -20.492437 0.070860 5.505389
v 1.529121 0.070860 5.505389
v -20.492437 22.092417 5.505389
v 1.529121 22.092417 5.505389
v -20.492437 22.092417 -5.505389
v 1.529121 22.092417 -5.505389
v -20.492437 0.070860 -5.505389
v 1.529121 0.070860 -5.505389
vt 0.133628 0.003024
vt 0.395502 0.003001
vt 0.133652 0.264898
vt 0.395526 0.264875
vt 0.133663 0.395835
vt 0.395537 0.395812
vt 0.133687 0.657709
vt 0.395561 0.657686
vt 0.133699 0.788647
vt 0.395573 0.788623
vt 0.526439 0.002989
vt 0.526463 0.264863
vt 0.002691 0.003036
vt 0.002715 0.264910
vn 0.000000 0.000000 1.000000
vn 0.000000 0.000000 1.000000
vn 0.000000 0.000000 1.000000
vn 0.000000 0.000000 1.000000
vn 0.000000 1.000000 0.000000
vn 0.000000 1.000000 0.000000
vn 0.000000 1.000000 0.000000
vn 0.000000 1.000000 0.000000
vn 0.000000 0.000000 -1.000000
vn 0.000000 0.000000 -1.000000
vn 0.000000 0.000000 -1.000000
vn 0.000000 0.000000 -1.000000
vn 0.000000 -1.000000 0.000000
vn 0.000000 -1.000000 0.000000
vn 0.000000 -1.000000 0.000000
vn 0.000000 -1.000000 0.000000
vn 1.000000 0.000000 0.000000
vn 1.000000 0.000000 0.000000
vn 1.000000 0.000000 0.000000
vn 1.000000 0.000000 0.000000
vn -1.000000 0.000000 0.000000
vn -1.000000 0.000000 0.000000
vn -1.000000 0.000000 0.000000
vn -1.000000 0.000000 0.000000
s off
g pCube2
usemtl initialShadingGroup
f 15/25/43 16/26/44 18/28/45 17/27/46
f 17/27/47 18/28/48 20/30/49 19/29/50
f 19/29/51 20/30/52 22/32/53 21/31/54
f 21/31/55 22/32/56 16/34/57 15/33/58
f 16/26/59 22/35/60 20/36/61 18/28/62
f 21/37/63 15/25/64 17/27/65 19/38/66
g default
v -20.376207 25.136278 5.505389
v 1.645350 25.136278 5.505389
v -20.376207 29.515108 5.505389
v 1.645350 29.515108 5.505389
v -20.376207 29.515108 -5.505389
v 1.645350 29.515108 -5.505389
v -20.376207 25.136278 -5.505389
v 1.645350 25.136278 -5.505389
vt 0.543089 0.608762
vt 0.804964 0.608759
vt 0.543090 0.660833
vt 0.804964 0.660831
vt 0.543091 0.791770
vt 0.804965 0.791768
vt 0.543092 0.843842
vt 0.804966 0.843840
vt 0.543093 0.974779
vt 0.804967 0.974777
vt 0.935901 0.608757
vt 0.935901 0.660829
vt 0.412152 0.608763
vt 0.412153 0.660835
vn 0.000000 0.000000 1.000000
vn 0.000000 0.000000 1.000000
vn 0.000000 0.000000 1.000000
vn 0.000000 0.000000 1.000000
vn 0.000000 1.000000 0.000000
vn 0.000000 1.000000 0.000000
vn 0.000000 1.000000 0.000000
vn 0.000000 1.000000 0.000000
vn 0.000000 0.000000 -1.000000
vn 0.000000 0.000000 -1.000000
vn 0.000000 0.000000 -1.000000
vn 0.000000 0.000000 -1.000000
vn 0.000000 -1.000000 0.000000
vn 0.000000 -1.000000 0.000000
vn 0.000000 -1.000000 0.000000
vn 0.000000 -1.000000 0.000000
vn 1.000000 0.000000 0.000000
vn 1.000000 0.000000 0.000000
vn 1.000000 0.000000 0.000000
vn 1.000000 0.000000 0.000000
vn -1.000000 0.000000 0.000000
vn -1.000000 0.000000 0.000000
vn -1.000000 0.000000 0.000000
vn -1.000000 0.000000 0.000000
s off
g pCube4
usemtl initialShadingGroup
f 23/39/67 24/40/68 26/42/69 25/41/70
f 25/41/71 26/42/72 28/44/73 27/43/74
f 27/43/75 28/44/76 30/46/77 29/45/78
f 29/45/79 30/46/80 24/48/81 23/47/82
f 24/40/83 30/49/84 28/50/85 26/42/86
f 29/51/87 23/39/88 25/41/89 27/52/90
