# This file uses centimeters as units for non-parametric coordinates.

mtllib 2.mtl
g default
v -17.212054 -17.212054 8.606027
v 17.212054 -17.212054 8.606027
v -17.212054 17.212054 8.606027
v 17.212054 17.212054 8.606027
v -17.212054 17.212054 -8.606027
v 17.212054 17.212054 -8.606027
v -17.212054 -17.212054 -8.606027
v 17.212054 -17.212054 -8.606027
vt 0.124557 0.000278
vt 0.373183 0.000255
vt 0.124580 0.248904
vt 0.373205 0.248881
vt 0.124591 0.373217
vt 0.373217 0.373194
vt 0.124613 0.621843
vt 0.373239 0.621820
vt 0.124624 0.746156
vt 0.373250 0.746133
vt 0.497496 0.000244
vt 0.497518 0.248870
vt 0.000244 0.000289
vt 0.000267 0.248915
vn 0.000000 0.000000 1.000000
vn 0.000000 0.000000 1.000000
vn 0.000000 0.000000 1.000000
vn 0.000000 0.000000 1.000000
vn 0.000000 1.000000 0.000000
vn 0.000000 1.000000 0.000000
vn 0.000000 1.000000 0.000000
vn 0.000000 1.000000 0.000000
vn 0.000000 0.000000 -1.000000
vn 0.000000 0.000000 -1.000000
vn 0.000000 0.000000 -1.000000
vn 0.000000 0.000000 -1.000000
vn 0.000000 -1.000000 0.000000
vn 0.000000 -1.000000 0.000000
vn 0.000000 -1.000000 0.000000
vn 0.000000 -1.000000 0.000000
vn 1.000000 0.000000 0.000000
vn 1.000000 0.000000 0.000000
vn 1.000000 0.000000 0.000000
vn 1.000000 0.000000 0.000000
vn -1.000000 0.000000 0.000000
vn -1.000000 0.000000 0.000000
vn -1.000000 0.000000 0.000000
vn -1.000000 0.000000 0.000000
s off
g pCube7
usemtl initialShadingGroup
f 1/1/1 2/2/2 4/4/3 3/3/4
f 3/3/5 4/4/6 6/6/7 5/5/8
f 5/5/9 6/6/10 8/8/11 7/7/12
f 7/7/13 8/8/14 2/10/15 1/9/16
f 2/2/17 8/11/18 6/12/19 4/4/20
f 7/13/21 1/1/22 3/3/23 5/14/24
