# This file uses centimeters as units for non-parametric coordinates.

mtllib Teeth.mtl
g default
v -2.670395 -0.955960 0.000000
v -0.713075 -0.077117 0.544130
v -0.713075 -0.349182 0.471231
v -0.713075 -0.548348 0.272065
v -0.713075 -0.621247 0.000000
v -0.713075 -0.548348 -0.272065
v -0.713075 -0.349182 -0.471231
v -0.713075 -0.077117 -0.544130
v -0.713075 0.194948 -0.471231
v -0.713075 0.394114 -0.272065
v -0.713075 0.467013 0.000000
v -0.713075 0.394114 0.272065
v -0.713075 0.194948 0.471231
v -2.139496 -0.499589 0.150843
v -2.092588 -0.580835 0.140723
v -2.053381 -0.648744 0.086115
v -2.037829 -0.675680 0.000000
v -2.053381 -0.648744 -0.086115
v -2.092588 -0.580835 -0.140723
v -2.139496 -0.499589 -0.150843
v -2.180128 -0.429212 -0.121895
v -2.206586 -0.383384 -0.067091
v -2.215664 -0.367662 0.000000
v -2.206586 -0.383384 0.067091
v -2.180128 -0.429212 0.121895
v -1.459342 -0.253966 0.351477
v -1.427661 -0.433638 0.311202
v -1.403554 -0.570352 0.182666
v -1.394529 -0.621539 0.000000
v -1.403554 -0.570352 -0.182666
v -1.427661 -0.433638 -0.311202
v -1.459342 -0.253966 -0.351477
v -1.489666 -0.081992 -0.297866
v -1.511053 0.039301 -0.169317
v -1.518717 0.082766 0.000000
v -1.511053 0.039301 0.169317
v -1.489666 -0.081992 0.297866
v 0.661207 0.772333 -0.445907
v 1.177134 0.973341 -0.561958
v 0.661207 0.445907 -0.772333
v 1.177134 0.561958 -0.973341
v 0.661207 0.000000 -0.891813
v 1.177134 0.000000 -1.123917
v 0.661207 -0.445906 -0.772333
v 1.177134 -0.561958 -0.973341
v 0.661207 -0.772333 -0.445907
v 1.177134 -0.973341 -0.561958
v 0.661207 -0.891813 0.000000
v 1.177134 -1.123917 0.000000
v 0.661207 -0.772333 0.445907
v 1.177134 -0.973341 0.561958
v 0.661207 -0.445906 0.772333
v 1.177134 -0.561958 0.973341
v 0.661207 0.000000 0.891813
v 1.177134 0.000000 1.123917
v 0.661207 0.445907 0.772333
v 1.177134 0.561958 0.973341
v 0.661207 0.772333 0.445907
v 1.177134 0.973341 0.561958
v 0.661207 0.891813 0.000000
v 1.177134 1.123917 0.000000
v 2.311544 1.422193 0.000000
v 1.991019 1.584970 0.000000
v 1.603017 1.439146 0.000000
v 2.311544 1.231655 -0.711096
v 1.991019 1.372625 -0.792485
v 1.603017 1.246338 -0.719573
v 2.311544 1.231655 0.711096
v 1.991019 1.372625 0.792485
v 1.603017 1.246338 0.719573
v 2.311544 0.711096 1.231655
v 1.991019 0.792485 1.372625
v 1.603017 0.719573 1.246338
v 2.311544 0.000000 1.422193
v 1.991019 0.000000 1.584971
v 1.603017 0.000000 1.439146
v 2.311544 -0.711096 1.231655
v 1.991019 -0.792485 1.372625
v 1.603017 -0.719573 1.246338
v 2.311544 -1.231655 0.711096
v 1.991019 -1.372625 0.792485
v 1.603017 -1.246337 0.719573
v 2.311544 -1.422193 0.000000
v 1.991019 -1.584970 0.000000
v 1.603017 -1.439146 0.000000
v 2.311544 -1.231655 -0.711096
v 1.991019 -1.372625 -0.792485
v 1.603017 -1.246337 -0.719573
v 2.311544 -0.711096 -1.231655
v 1.991019 -0.792485 -1.372625
v 1.603017 -0.719573 -1.246338
v 2.311544 0.000000 -1.422193
v 1.991019 0.000000 -1.584971
v 1.603017 0.000000 -1.439146
v 2.311544 0.711096 -1.231655
v 1.991019 0.792485 -1.372625
v 1.603017 0.719573 -1.246338
v 2.757077 0.776247 0.000000
v 2.564194 1.176151 0.000000
v 2.757077 0.672250 -0.388124
v 2.564194 1.018576 -0.588075
v 2.757077 0.672250 0.388124
v 2.564194 1.018577 0.588075
v 2.757077 0.388124 0.672250
v 2.564194 0.588075 1.018577
v 2.757077 0.000000 0.776247
v 2.564194 0.000000 1.176151
v 2.757077 -0.388124 0.672250
v 2.564194 -0.588075 1.018577
v 2.757077 -0.672250 0.388124
v 2.564194 -1.018576 0.588075
v 2.757077 -0.776247 0.000000
v 2.564194 -1.176151 0.000000
v 2.757077 -0.672250 -0.388124
v 2.564194 -1.018576 -0.588075
v 2.757077 -0.388124 -0.672250
v 2.564194 -0.588075 -1.018577
v 2.757077 0.000000 -0.776247
v 2.564194 0.000000 -1.176151
v 2.757077 0.388124 -0.672250
v 2.564194 0.588075 -1.018577
v 2.757077 0.000000 0.000000
v 2.757077 0.000000 -0.388124
v 2.757077 0.000000 0.388124
v -0.030218 0.393260 -0.621782
v -0.030218 0.656056 -0.358986
v -0.030218 0.752246 0.000000
v -0.030218 0.656056 0.358986
v -0.030218 0.393260 0.621782
v -0.030218 0.034274 0.717972
v -0.030218 -0.324712 0.621782
v -0.030218 -0.587507 0.358986
v -0.030218 -0.683697 0.000000
v -0.030218 -0.587507 -0.358986
v -0.030218 -0.324712 -0.621782
v -0.030218 0.034274 -0.717972
vt 0.294092 0.402008
vt 0.287871 0.418300
vt 0.248936 0.388458
vt 0.253897 0.378409
vt 0.298464 0.385064
vt 0.257626 0.367617
vt 0.301748 0.367847
vt 0.260376 0.356373
vt 0.168592 0.460389
vt 0.172246 0.417126
vt 0.185780 0.464399
vt 0.183850 0.418959
vt 0.203114 0.466902
vt 0.195328 0.419447
vt 0.220531 0.466832
vt 0.206422 0.418325
vt 0.237582 0.463462
vt 0.216869 0.415518
vt 0.253538 0.456541
vt 0.226487 0.411066
vt 0.267605 0.446325
vt 0.235114 0.404991
vt 0.279130 0.433328
vt 0.242646 0.397408
vt 0.215366 0.355962
vt 0.211913 0.360415
vt 0.177861 0.331284
vt 0.218281 0.350949
vt 0.220259 0.345645
vt 0.176954 0.375476
vt 0.182821 0.375278
vt 0.188449 0.374345
vt 0.193430 0.372957
vt 0.197687 0.371289
vt 0.201411 0.369355
vt 0.204881 0.367016
vt 0.208355 0.364094
vt 0.267389 0.545690
vt 0.237009 0.552724
vt 0.232065 0.509459
vt 0.254494 0.504367
vt 0.206322 0.554109
vt 0.208907 0.510340
vt 0.176536 0.550041
vt 0.185802 0.507479
vt 0.386039 0.351161
vt 0.163381 0.501720
vt 0.387777 0.380196
vt 0.343450 0.376879
vt 0.384328 0.410006
vt 0.339746 0.400341
vt 0.375843 0.439331
vt 0.333178 0.423477
vt 0.362505 0.467284
vt 0.323459 0.445376
vt 0.344508 0.492897
vt 0.310457 0.465128
vt 0.322207 0.515157
vt 0.294291 0.481892
vt 0.296265 0.533137
vt 0.275337 0.494933
vt 0.278292 0.579542
vt 0.241499 0.588041
vt 0.203985 0.589523
vt 0.167155 0.583764
vt 0.418307 0.343196
vt 0.422877 0.379139
vt 0.419663 0.415953
vt 0.409623 0.451880
vt 0.393388 0.485743
vt 0.371464 0.516482
vt 0.344421 0.543030
vt 0.313027 0.564367
vt 0.328335 0.593859
vt 0.287867 0.611374
vt 0.364882 0.569272
vt 0.396384 0.538619
vt 0.421969 0.503010
vt 0.440947 0.463543
vt 0.452624 0.421230
vt 0.455992 0.377041
vt 0.449264 0.332002
vt 0.156938 0.614819
vt 0.200705 0.622446
vt 0.244843 0.621094
vt 0.288333 0.749866
vt 0.266715 0.755381
vt 0.381031 0.589557
vt 0.288199 0.700960
vt 0.296940 0.807739
vt 0.312903 0.792154
vt 0.415957 0.555632
vt 0.312534 0.658537
vt 0.444303 0.516194
vt 0.354822 0.633967
vt 0.465316 0.472394
vt 0.403729 0.633833
vt 0.478204 0.425248
vt 0.446149 0.658170
vt 0.481790 0.375763
vt 0.470720 0.700455
vt 0.102635 0.619933
vt 0.470855 0.749362
vt 0.149266 0.639438
vt 0.446519 0.791784
vt 0.198289 0.648238
vt 0.404233 0.816353
vt 0.247595 0.646877
vt 0.355327 0.816490
vt 0.806657 0.168347
vt 0.308978 0.744049
vt 0.308987 0.706245
vt 0.806654 0.143334
vt 0.819166 0.190008
vt 0.327874 0.776793
vt 0.840829 0.202512
vt 0.360611 0.795702
vt 0.327895 0.673508
vt 0.346612 0.692442
vt 0.360639 0.654612
vt 0.840818 0.109162
vt 0.398444 0.654621
vt 0.391403 0.680297
vt 0.431178 0.673530
vt 0.887495 0.121663
vt 0.450075 0.706273
vt 0.900004 0.143323
vt 0.450067 0.744077
vt 0.900007 0.168336
vt 0.431158 0.776813
vt 0.412442 0.757878
vt 0.398415 0.795707
vt 0.865842 0.202509
vt 0.859586 0.179172
vt 0.847074 0.132498
vt 0.853330 0.155835
vt 0.344590 0.353204
vt 0.304459 0.350695
vt 0.367649 0.770025
vt 0.391672 0.769952
vt 0.887503 0.190000
vt 0.424391 0.737038
vt 0.424319 0.713015
vt 0.412244 0.692248
vt 0.865831 0.109159
vt 0.367380 0.680368
vt 0.819158 0.121671
vt 0.334664 0.713283
vt 0.346808 0.758076
vt 0.334734 0.737308
vt 0.295505 0.636153
vt 0.349295 0.837969
vt 0.409748 0.837970
vt 0.462103 0.807748
vt 0.474387 0.325597
vt 0.492334 0.755395
vt 0.492337 0.694940
vt 0.462114 0.642585
vt 0.409763 0.612355
vt 0.349308 0.612349
vt 0.296950 0.642573
vt 0.266720 0.694927
vt 0.340472 0.616767
vt 0.114959 0.597251
vt 0.148805 0.540898
vt 0.132836 0.570319
vt 0.262361 0.344839
vt 0.221206 0.340060
vn -0.157042 -0.488279 0.858441
vn -0.249127 0.003118 0.968466
vn -0.260085 0.001102 0.965585
vn -0.131001 -0.476627 0.869290
vn -0.082708 -0.860284 0.503062
vn -0.019067 -0.853458 0.520813
vn -0.053911 -0.998546 0.000000
vn 0.026969 -0.999636 0.000000
vn -0.082708 -0.860284 -0.503062
vn -0.019067 -0.853458 -0.520813
vn -0.157042 -0.488279 -0.858441
vn -0.131001 -0.476627 -0.869290
vn -0.249127 0.003118 -0.968466
vn -0.260085 0.001102 -0.965585
vn -0.331434 0.471511 -0.817208
vn -0.370299 0.451485 -0.811813
vn -0.386112 0.798269 -0.462260
vn -0.442319 0.769590 -0.460527
vn -0.405032 0.914303 0.000000
vn -0.467194 0.884155 0.000000
vn -0.386112 0.798269 0.462260
vn -0.442319 0.769590 0.460527
vn -0.331434 0.471511 0.817208
vn -0.370299 0.451485 0.811813
vn -0.094269 -0.426311 0.899651
vn -0.281143 0.009502 0.959619
vn -0.646889 -0.762584 0.000000
vn 0.079348 -0.815415 0.573413
vn 0.157286 -0.987553 0.000000
vn 0.079348 -0.815415 -0.573413
vn -0.094269 -0.426311 -0.899651
vn -0.281143 0.009502 -0.959619
vn -0.442767 0.406345 -0.799275
vn -0.555664 0.694860 -0.456517
vn -0.596885 0.802327 0.000000
vn -0.555664 0.694860 0.456517
vn -0.442767 0.406345 0.799275
vn -0.314369 0.821150 -0.476325
vn -0.322197 0.470447 -0.821504
vn -0.263534 0.493580 -0.828811
vn -0.275206 0.836300 -0.474199
vn -0.332674 -0.003821 -0.943034
vn -0.246475 0.015201 -0.969030
vn -0.342905 -0.472526 -0.811871
vn -0.228016 -0.475290 -0.849770
vn -0.350242 -0.812112 -0.466696
vn -0.213556 -0.842168 -0.495123
vn -0.352895 -0.935663 0.000000
vn -0.208056 -0.978117 0.000000
vn -0.350242 -0.812112 0.466696
vn -0.213556 -0.842168 0.495123
vn -0.342905 -0.472526 0.811871
vn -0.228016 -0.475290 0.849770
vn -0.332674 -0.003821 0.943034
vn -0.246475 0.015201 0.969030
vn -0.322197 0.470447 0.821504
vn -0.263534 0.493580 0.828811
vn -0.314369 0.821150 0.476325
vn -0.275206 0.836300 0.474199
vn -0.311470 0.950256 0.000000
vn -0.279316 0.960199 0.000000
vn -0.521000 0.739202 -0.426778
vn -0.521000 0.426778 -0.739202
vn -0.473062 0.762994 -0.440514
vn -0.473062 0.440515 -0.762994
vn -0.521000 0.000000 -0.853557
vn -0.473062 0.000000 -0.881029
vn -0.521000 -0.426778 -0.739202
vn -0.473062 -0.440515 -0.762994
vn -0.521000 -0.739202 -0.426778
vn -0.473062 -0.762994 -0.440514
vn -0.521000 -0.853557 0.000000
vn -0.473062 -0.881029 -0.000000
vn -0.521000 -0.739202 0.426778
vn -0.473062 -0.762994 0.440514
vn -0.521000 -0.426778 0.739202
vn -0.473062 -0.440514 0.762994
vn -0.521000 0.000000 0.853557
vn -0.473062 0.000000 0.881029
vn -0.521000 0.426778 0.739202
vn -0.473062 0.440514 0.762994
vn -0.521000 0.739202 0.426778
vn -0.473062 0.762994 0.440514
vn -0.521000 0.853557 0.000000
vn -0.473062 0.881029 -0.000000
vn 0.559594 0.828767 -0.000000
vn 0.018776 0.999824 -0.000000
vn 0.018776 0.865873 0.499912
vn 0.559594 0.717733 0.414383
vn 0.018776 0.865873 -0.499912
vn 0.559595 0.717733 -0.414383
vn 0.018776 0.499912 0.865873
vn 0.559595 0.414383 0.717733
vn 0.018776 0.000000 0.999824
vn 0.559594 0.000000 0.828767
vn 0.018776 -0.499912 0.865873
vn 0.559595 -0.414383 0.717733
vn 0.018776 -0.865873 0.499912
vn 0.559595 -0.717733 0.414383
vn 0.018776 -0.999824 -0.000000
vn 0.559594 -0.828767 0.000000
vn 0.018776 -0.865873 -0.499912
vn 0.559595 -0.717733 -0.414383
vn 0.018776 -0.499912 -0.865873
vn 0.559595 -0.414383 -0.717733
vn 0.018776 -0.000000 -0.999824
vn 0.559594 -0.000000 -0.828767
vn 0.018776 0.499912 -0.865873
vn 0.559595 0.414383 -0.717733
vn 0.973264 0.229690 -0.000000
vn 0.794493 0.607274 -0.000000
vn 0.794492 0.525915 0.303637
vn 0.969893 0.210905 0.121766
vn 0.969893 0.210905 -0.121766
vn 0.794493 0.525915 -0.303637
vn 0.959102 0.141530 -0.245137
vn 0.794493 0.303637 -0.525915
vn 0.794493 0.303637 0.525915
vn 0.959102 0.141530 0.245137
vn 0.794493 0.000000 0.607274
vn 0.959102 0.000000 0.283059
vn 0.794493 -0.303637 0.525915
vn 0.959102 -0.141530 0.245137
vn 0.794493 -0.525915 0.303637
vn 0.969893 -0.210905 0.121766
vn 0.794493 -0.607274 0.000000
vn 0.973264 -0.229690 0.000000
vn 0.794493 -0.525915 -0.303637
vn 0.969893 -0.210905 -0.121766
vn 0.794493 -0.303637 -0.525915
vn 0.959102 -0.141530 -0.245137
vn 0.794492 -0.000000 -0.607274
vn 0.959102 0.000000 -0.283060
vn 1.000000 -0.000000 0.000000
vn 1.000000 -0.000000 0.000000
vn 1.000000 -0.000000 0.000000
s 1
g fangshot
usemtl initialShadingGroup
f 3/1/1 2/2/2 26/3/3 27/4/4
f 4/5/5 3/1/1 27/4/4 28/6/6
f 5/7/7 4/5/5 28/6/6 29/8/8
f 6/138/9 5/7/7 29/8/8 30/167/10
f 7/11/11 6/9/9 30/10/10 31/12/12
f 8/13/13 7/11/11 31/12/12 32/14/14
f 9/15/15 8/13/13 32/14/14 33/16/16
f 10/17/17 9/15/15 33/16/16 34/18/18
f 11/19/19 10/17/17 34/18/18 35/20/20
f 12/21/21 11/19/19 35/20/20 36/22/22
f 13/23/23 12/21/21 36/22/22 37/24/24
f 2/2/2 13/23/23 37/24/24 26/3/3
f 15/25/25 14/26/26 1/27/27
f 16/28/28 15/25/25 1/27/27
f 17/29/29 16/28/28 1/27/27
f 18/168/30 17/29/29 1/27/27
f 19/31/31 18/30/30 1/27/27
f 20/32/32 19/31/31 1/27/27
f 21/33/33 20/32/32 1/27/27
f 22/34/34 21/33/33 1/27/27
f 23/35/35 22/34/34 1/27/27
f 24/36/36 23/35/35 1/27/27
f 25/37/37 24/36/36 1/27/27
f 14/26/26 25/37/37 1/27/27
f 27/4/4 26/3/3 14/26/26 15/25/25
f 28/6/6 27/4/4 15/25/25 16/28/28
f 29/8/8 28/6/6 16/28/28 17/29/29
f 30/167/10 29/8/8 17/29/29 18/168/30
f 31/12/12 30/10/10 18/30/30 19/31/31
f 32/14/14 31/12/12 19/31/31 20/32/32
f 33/16/16 32/14/14 20/32/32 21/33/33
f 34/18/18 33/16/16 21/33/33 22/34/34
f 35/20/20 34/18/18 22/34/34 23/35/35
f 36/22/22 35/20/20 23/35/35 24/36/36
f 37/24/24 36/22/22 24/36/36 25/37/37
f 26/3/3 37/24/24 25/37/37 14/26/26
f 38/38/38 40/39/39 125/40/40 126/41/41
f 40/39/39 42/42/42 136/43/43 125/40/40
f 42/42/42 44/44/44 135/45/45 136/43/43
f 44/44/44 46/165/46 134/47/47 135/45/45
f 46/46/46 48/48/48 133/49/49 134/137/47
f 48/48/48 50/50/50 132/51/51 133/49/49
f 50/50/50 52/52/52 131/53/53 132/51/51
f 52/52/52 54/54/54 130/55/55 131/53/53
f 54/54/54 56/56/56 129/57/57 130/55/55
f 56/56/56 58/58/58 128/59/59 129/57/57
f 58/58/58 60/60/60 127/61/61 128/59/59
f 60/60/60 38/38/38 126/41/41 127/61/61
f 38/38/38 39/62/62 41/63/63 40/39/39
f 41/63/63 39/62/62 67/75/64 97/85/65
f 40/39/39 41/63/63 43/64/66 42/42/42
f 43/64/66 41/63/63 97/85/65 94/84/67
f 42/42/42 43/64/66 45/65/68 44/44/44
f 45/65/68 43/64/66 94/84/67 91/83/69
f 44/44/44 45/65/68 47/166/70 46/165/46
f 47/166/70 45/65/68 91/83/69 88/164/71
f 46/46/46 47/66/70 49/67/72 48/48/48
f 49/67/72 47/66/70 88/82/71 85/81/73
f 48/48/48 49/67/72 51/68/74 50/50/50
f 51/68/74 49/67/72 85/81/73 82/80/75
f 50/50/50 51/68/74 53/69/76 52/52/52
f 53/69/76 51/68/74 82/80/75 79/79/77
f 52/52/52 53/69/76 55/70/78 54/54/54
f 55/70/78 53/69/76 79/79/77 76/78/79
f 54/54/54 55/70/78 57/71/80 56/56/56
f 57/71/80 55/70/78 76/78/79 73/77/81
f 56/56/56 57/71/80 59/72/82 58/58/58
f 59/72/82 57/71/80 73/77/81 70/76/83
f 58/58/58 59/72/82 61/73/84 60/60/60
f 61/73/84 59/72/82 70/76/83 64/74/85
f 39/62/62 61/73/84 64/74/85 67/75/64
f 39/62/62 38/38/38 60/60/60 61/73/84
f 62/86/86 63/87/87 69/162/88 68/89/89
f 63/163/87 64/74/85 70/76/83 69/88/88
f 64/74/85 63/163/87 66/151/90 67/75/64
f 63/87/87 62/86/86 65/91/91 66/90/90
f 68/89/89 69/162/88 72/161/92 71/93/93
f 69/88/88 70/76/83 73/77/81 72/92/92
f 71/93/93 72/161/92 75/160/94 74/95/95
f 72/92/92 73/77/81 76/78/79 75/94/94
f 74/95/95 75/160/94 78/159/96 77/97/97
f 75/94/94 76/78/79 79/79/77 78/96/96
f 77/97/97 78/159/96 81/158/98 80/99/99
f 78/96/96 79/79/77 82/80/75 81/98/98
f 80/99/99 81/158/98 84/157/100 83/101/101
f 81/98/98 82/80/75 85/81/73 84/100/100
f 83/101/101 84/157/100 87/156/102 86/103/103
f 84/100/100 85/81/73 88/82/71 87/155/102
f 86/103/103 87/156/102 90/154/104 89/105/105
f 87/102/102 88/164/71 91/83/69 90/104/104
f 89/105/105 90/154/104 93/153/106 92/107/107
f 90/104/104 91/83/69 94/84/67 93/106/106
f 92/107/107 93/153/106 96/152/108 95/109/109
f 93/106/106 94/84/67 97/85/65 96/108/108
f 67/75/64 66/151/90 96/108/108 97/85/65
f 66/90/90 65/91/91 95/109/109 96/152/108
f 98/150/110 99/111/111 103/112/112 102/148/113
f 99/111/111 98/150/110 100/149/114 101/115/115
f 101/115/115 100/149/114 120/139/116 121/117/117
f 102/148/113 103/112/112 105/118/118 104/119/119
f 104/119/119 105/118/118 107/120/120 106/146/121
f 106/146/121 107/120/120 109/122/122 108/123/123
f 108/123/123 109/122/122 111/124/124 110/144/125
f 110/144/125 111/124/124 113/126/126 112/143/127
f 112/143/127 113/126/126 115/128/128 114/142/129
f 114/142/129 115/128/128 117/130/130 116/131/131
f 116/131/131 117/130/130 119/132/132 118/140/133
f 118/140/133 119/132/132 121/117/117 120/139/116
f 100/114/114 123/134/134 118/133/133 120/116/116
f 65/91/91 62/86/86 99/111/111 101/115/115
f 62/86/86 68/89/89 103/112/112 99/111/111
f 68/89/89 71/93/93 105/118/118 103/112/112
f 71/93/93 74/95/95 107/120/120 105/118/118
f 74/95/95 77/97/97 109/122/122 107/120/120
f 77/97/97 80/99/99 111/124/124 109/122/122
f 80/99/99 83/101/101 113/126/126 111/124/124
f 83/101/101 86/103/103 115/128/128 113/126/126
f 86/103/103 89/105/105 117/130/130 115/128/128
f 89/105/105 92/107/107 119/132/132 117/130/130
f 92/107/107 95/109/109 121/117/117 119/132/132
f 95/109/109 65/91/91 101/115/115 121/117/117
f 106/121/121 124/135/135 102/113/113 104/147/119
f 110/125/125 124/135/135 106/121/121 108/145/123
f 118/133/133 123/134/134 114/129/129 116/141/131
f 100/114/114 98/110/110 122/136/136 123/134/134
f 114/129/129 123/134/134 122/136/136 112/127/127
f 112/127/127 122/136/136 124/135/135 110/125/125
f 102/113/113 124/135/135 122/136/136 98/110/110
f 126/41/41 125/40/40 9/15/15 10/17/17
f 127/61/61 126/41/41 10/17/17 11/19/19
f 128/59/59 127/61/61 11/19/19 12/21/21
f 129/57/57 128/59/59 12/21/21 13/23/23
f 130/55/55 129/57/57 13/23/23 2/2/2
f 131/53/53 130/55/55 2/2/2 3/1/1
f 132/51/51 131/53/53 3/1/1 4/5/5
f 133/49/49 132/51/51 4/5/5 5/7/7
f 134/137/47 133/49/49 5/7/7 6/138/9
f 135/45/45 134/47/47 6/9/9 7/11/11
f 136/43/43 135/45/45 7/11/11 8/13/13
f 125/40/40 136/43/43 8/13/13 9/15/15
