# This file uses centimeters as units for non-parametric coordinates.

mtllib Hoof.mtl
g default
v -3.469728 -0.828098 0.625923
v 2.055655 -0.163612 0.100305
v -3.469728 0.844511 0.924087
v 2.055655 0.036997 0.100305
v -3.469728 0.844511 -0.924087
v 2.055655 0.036997 -0.100305
v -3.469728 -0.749507 -0.625923
v 2.055655 -0.163612 -0.100305
v 0.544199 -0.996754 0.752832
v 1.109029 0.752518 0.752832
v 1.109029 0.752518 -0.752832
v 0.544199 -0.996754 -0.752832
v -0.369707 -0.866095 0.652027
v -1.120035 -0.791579 0.594797
v -1.875779 -0.781421 0.587736
v -1.613496 0.700618 0.747693
v -0.857100 0.667352 0.701271
v -0.100167 0.684559 0.705487
v -1.613733 0.700636 -0.747715
v -0.857100 0.667360 -0.701279
v -0.099930 0.684572 -0.705496
v -1.875344 -0.737098 -0.587725
v -1.120666 -0.762516 -0.594710
v -0.372658 -0.850215 -0.651701
v -3.469728 1.024084 0.000000
v -3.469728 -0.927813 0.000000
v -1.875561 -0.892508 0.000006
v -1.120350 -0.913765 0.000052
v -0.371183 -1.010693 0.000195
v 0.544199 -1.176327 0.000000
v 2.055655 -0.180678 0.000000
v 2.055655 0.059061 0.000000
v 1.109029 0.914146 0.000000
v -0.100049 0.832941 -0.000006
v -0.857100 0.812374 -0.000005
v -1.613615 0.852134 -0.000013
v -3.469728 0.024655 0.926172
v -3.469728 0.048135 0.000000
v -3.469728 0.071615 -0.926172
v -1.744539 -0.006939 -0.797961
v -0.988883 -0.042010 -0.774388
v -0.236294 -0.084128 -0.810962
v 0.826614 -0.131090 -0.899675
v 2.055655 -0.060808 -0.119869
v 2.055655 -0.060808 0.119869
v 0.826614 -0.131090 0.899675
v -0.234937 -0.093625 0.811151
v -0.988567 -0.059381 0.774435
v -1.744638 -0.033435 0.797954
v 3.469728 1.176327 -1.035620
v 3.469728 -0.456370 -1.035620
v 3.469728 -1.054285 -0.000000
v 3.469728 -0.456370 1.035620
v 3.469728 1.176327 1.035620
v 3.469728 0.606571 0.000000
v 1.507884 0.739461 -1.035620
v 1.507884 -0.456370 -1.035620
v 1.507884 -1.054285 -0.000000
v 1.507884 -0.456370 1.035620
v 1.507884 0.739461 1.035620
v 1.507884 0.674236 0.000000
v 1.507884 0.141545 0.000000
v 3.469728 0.754957 -0.786511
v 3.469728 -0.312547 -0.786511
v 3.469728 -0.766639 -0.000000
v 3.469728 -0.312547 0.786511
v 3.469728 0.754957 0.786511
v 3.469728 0.322251 -0.000000
v 2.785247 0.754957 -0.786511
v 2.785247 -0.312547 -0.786511
v 2.785247 0.141545 0.000000
v 2.785247 -0.766639 -0.000000
v 2.785247 -0.312547 0.786511
v 2.785247 0.754957 0.786511
v 2.785247 0.322251 -0.000000
v 2.487264 0.832854 -0.982903
v 2.487264 0.531901 0.000000
v 2.487264 0.832854 0.982903
v 2.487264 -0.509093 0.982903
v 2.487264 -1.076572 -0.000000
v 2.487264 -0.509093 -0.982903
v 2.785247 0.221205 -0.867373
v 3.469728 0.221205 -0.867373
v 3.469728 0.359979 -1.142093
v 2.487264 0.161881 -1.083956
v 1.507884 0.141546 -1.142093
v 2.785247 0.221205 0.867373
v 3.469728 0.221205 0.867373
v 3.469728 0.359978 1.142093
v 2.487264 0.161880 1.083956
v 1.507884 0.141545 1.142093
v 2.785247 0.622974 -0.410871
v 3.469728 0.622974 -0.410871
v 3.469728 1.073313 -0.541005
v 2.487264 0.806474 -0.513466
v 1.507884 0.837706 -0.541005
v 2.785247 0.622974 0.410871
v 3.469728 0.622974 0.410871
v 3.469728 1.073313 0.541005
v 2.487264 0.806473 0.513466
v 1.507884 0.837705 0.541005
v 2.785247 -0.609888 0.393255
v 3.469728 -0.609888 0.393255
v 3.469728 -0.864681 0.517810
v 2.487264 -0.908976 0.491451
v 1.507884 -0.864681 0.517810
v 2.785247 -0.609888 -0.393255
v 3.469728 -0.609888 -0.393255
v 3.469728 -0.864681 -0.517810
v 2.487264 -0.908976 -0.491452
v 1.507884 -0.864681 -0.517810
vt 0.291296 0.838285
vt 0.152546 0.884788
vt 0.470296 0.482359
vt 0.910094 0.895370
vt 0.909938 0.834617
vt 0.948918 0.840725
vt 0.738183 0.496486
vt 0.725206 0.377323
vt 0.750201 0.597922
vt 0.753935 0.551173
vt 0.147416 0.888286
vt 0.734859 0.282985
vt 0.315004 0.936850
vt 0.286741 0.850047
vt 0.394627 0.885068
vt 0.575575 0.443741
vt 0.624060 0.357625
vt 0.624977 0.496137
vt 0.577841 0.492978
vt 0.669178 0.364965
vt 0.671981 0.496909
vt 0.967745 0.944797
vt 0.581017 0.539776
vt 0.580355 0.587577
vt 0.464305 0.590085
vt 0.479130 0.226673
vt 0.586681 0.232740
vt 0.579736 0.280404
vt 0.871003 0.845817
vt 0.579444 0.318412
vt 0.675043 0.591316
vt 0.677746 0.546270
vt 0.676223 0.281551
vt 0.680907 0.231979
vt 0.673840 0.323482
vt 0.629509 0.542985
vt 0.627664 0.588342
vt 0.633849 0.233303
vt 0.628078 0.280694
vt 0.626754 0.319692
vt 0.746161 0.645408
vt 0.147276 0.900939
vt 0.671971 0.635934
vt 0.626374 0.633160
vt 0.593790 0.188415
vt 0.852696 0.945092
vt 0.113447 0.802933
vt 0.074289 0.846347
vt 0.280843 0.852814
vt 0.747492 0.227924
vt 0.371638 0.927409
vt 0.852443 0.896979
vt 0.479518 0.280171
vt 0.967745 0.893761
vt 0.463866 0.532376
vt 0.067021 0.893725
vt 0.759079 0.170717
vt 0.256540 0.936547
vt 0.073241 0.941252
vt 0.146425 0.894602
vt 0.274802 0.854249
vt 0.289563 0.844377
vt 0.158564 0.882294
vt 0.731349 0.329833
vt 0.723003 0.442222
vt 0.158575 0.767436
vt 0.406154 0.838289
vt 0.480008 0.320009
vt 0.478321 0.426814
vt 0.480303 0.359344
vt 0.910250 0.956123
vt 0.479129 0.178931
vt 0.465913 0.648532
vt 0.684952 0.182900
vt 0.666356 0.447474
vt 0.580732 0.635233
vt 0.578745 0.355529
vt 0.639292 0.188190
vt 0.620869 0.448377
vt 0.733517 0.802572
vt 0.740538 0.754723
vt 0.802247 0.748983
vt 0.799775 0.792962
vt 0.743845 0.705073
vt 0.746236 0.664582
vt 0.806899 0.665924
vt 0.804729 0.705765
vt 0.734522 0.764450
vt 0.700295 0.766267
vt 0.698944 0.705603
vt 0.731330 0.703866
vt 0.659805 0.768663
vt 0.610155 0.771977
vt 0.615886 0.710267
vt 0.659103 0.707779
vt 0.562307 0.779005
vt 0.533254 0.771892
vt 0.541503 0.708647
vt 0.571907 0.712746
vt 0.752735 0.873027
vt 0.740634 0.831623
vt 0.803879 0.823365
vt 0.810632 0.859872
vt 0.933523 0.777685
vt 0.900297 0.782718
vt 0.867071 0.777684
vt 0.905256 0.728724
vt 0.961791 0.728724
vt 0.952033 0.753204
vt 0.933524 0.679764
vt 0.952033 0.704244
vt 0.867071 0.679763
vt 0.900297 0.674730
vt 0.894007 0.728724
vt 0.875287 0.703147
vt 0.875287 0.754301
vt 0.726900 0.902807
vt 0.689681 0.909442
vt 0.652459 0.902821
vt 0.689668 0.838346
vt 0.627036 0.870592
vt 0.615227 0.838360
vt 0.627024 0.806124
vt 0.652435 0.773885
vt 0.689654 0.767250
vt 0.726876 0.773871
vt 0.732997 0.804660
vt 0.722828 0.838340
vt 0.733010 0.872016
vt 0.112488 0.759273
vt 0.103847 0.776373
vt 0.053030 0.769738
vt 0.079262 0.754234
vt 0.164228 0.729766
vt 0.180088 0.737522
vt 0.154666 0.769752
vt 0.145715 0.754244
vt 0.164235 0.680805
vt 0.180097 0.673054
vt 0.191895 0.705290
vt 0.173989 0.705287
vt 0.112503 0.651284
vt 0.103867 0.634181
vt 0.154684 0.640817
vt 0.145729 0.656323
vt 0.087489 0.679698
vt 0.059456 0.671593
vt 0.053048 0.640802
vt 0.079276 0.656313
vt 0.087481 0.730852
vt 0.059447 0.738949
vt 0.088506 0.705275
vt 0.106205 0.705277
vt 0.925587 0.550193
vt 0.968196 0.550196
vt 0.968193 0.583801
vt 0.925584 0.583798
vt 0.925592 0.485897
vt 0.968201 0.485901
vt 0.968199 0.516591
vt 0.925589 0.516587
vt 0.925596 0.433191
vt 0.968205 0.433194
vt 0.968203 0.459547
vt 0.925594 0.459544
vt 0.925601 0.368895
vt 0.968210 0.368898
vt 0.968207 0.402504
vt 0.925598 0.402500
vt 0.925605 0.310505
vt 0.968214 0.310508
vt 0.968212 0.335293
vt 0.925603 0.335290
vt 0.925582 0.608583
vt 0.968192 0.608587
vt 0.968189 0.640282
vt 0.925580 0.640279
vt 0.864539 0.815316
vt 0.869082 0.849295
vt 0.549544 0.647986
vt 0.579367 0.650312
vt 0.616068 0.648730
vt 0.653048 0.647235
vt 0.693681 0.645308
vt 0.727941 0.643462
vt 0.867195 0.671178
vt 0.865274 0.711811
vt 0.863785 0.748792
vt 0.862208 0.785493
vt 0.968217 0.278812
vt 0.925608 0.278809
vt 0.491849 0.759798
vt 0.504995 0.701899
vt 0.515564 0.643448
vt 0.748047 0.630354
vt 0.808631 0.633538
vt 0.869036 0.636918
vn -1.000000 0.000000 0.000000
vn -1.000000 0.000000 0.000000
vn -1.000000 0.000000 0.000000
vn -1.000000 0.000000 0.000000
vn 0.536677 -0.154594 0.829505
vn 0.532813 -0.186900 0.825335
vn 0.516553 -0.289118 0.805968
vn 0.516553 -0.289118 0.805968
vn 0.670517 0.741894 0.000000
vn 0.670517 0.741894 0.000000
vn 0.662123 0.732606 0.157741
vn 0.662123 0.732606 0.157741
vn 0.516553 -0.289118 -0.805968
vn 0.532813 -0.186900 -0.825335
vn 0.536677 -0.154594 -0.829505
vn 0.516553 -0.289118 -0.805968
vn 0.537859 -0.821496 0.189345
vn 0.547768 -0.836631 0.000000
vn 0.547768 -0.836631 0.000000
vn 0.537859 -0.821496 0.189345
vn 0.036057 -0.294181 0.955070
vn -0.032763 -0.232914 0.971945
vn -0.013042 -0.069132 0.997522
vn 0.056377 -0.122678 0.990844
vn -0.093796 -0.177812 0.979584
vn -0.071785 -0.011675 0.997352
vn 0.046603 -0.306954 0.950583
vn 0.067989 -0.137175 0.988211
vn 0.092294 0.976762 0.193436
vn 0.082752 0.977281 0.195126
vn 0.083906 0.996474 0.000010
vn 0.094070 0.995566 0.000007
vn 0.065468 -0.141280 -0.987803
vn 0.053756 -0.127322 -0.990404
vn 0.030735 -0.301282 -0.953040
vn 0.041239 -0.315454 -0.948045
vn 0.022995 -0.998465 -0.050388
vn 0.007237 -0.998982 -0.044520
vn 0.012039 -0.983922 0.178195
vn 0.027374 -0.984878 0.171071
vn -0.079791 0.042830 0.995891
vn -0.107386 -0.156048 0.981895
vn -0.065702 0.997839 0.000011
vn -0.050714 0.998713 0.000007
vn -0.049670 0.977233 0.206275
vn -0.064272 0.976122 0.207499
vn -0.096426 -0.178259 -0.979248
vn -0.072810 -0.011774 -0.997276
vn -0.080382 0.041918 -0.995882
vn -0.109389 -0.156079 -0.981669
vn -0.148386 -0.964966 0.216385
vn -0.156136 -0.987679 -0.010568
vn -0.176406 -0.984302 -0.005610
vn -0.167782 -0.960537 0.221851
vn 0.015389 0.979212 0.202253
vn 0.015150 0.999885 -0.000010
vn -0.014829 -0.070461 -0.997404
vn -0.036884 -0.235698 -0.971126
vn -0.072518 -0.976839 0.201315
vn -0.078707 -0.996604 -0.024192
vn -1.000000 0.000000 0.000000
vn -1.000000 0.000000 0.000000
vn 0.017602 -0.964065 -0.265084
vn 0.002410 -0.965409 -0.260730
vn -0.081398 -0.965909 -0.245751
vn -0.156542 -0.959277 -0.235122
vn -0.175822 -0.956829 -0.231441
vn 0.537859 -0.821496 -0.189345
vn 0.537859 -0.821496 -0.189345
vn 0.662123 0.732606 -0.157741
vn 0.662123 0.732606 -0.157741
vn -0.049671 0.977233 -0.206272
vn -0.064271 0.976121 -0.207500
vn 0.015390 0.979214 -0.202245
vn 0.082753 0.977281 -0.195126
vn 0.092292 0.976762 -0.193439
vn -1.000000 0.000000 0.000000
vn -1.000000 0.000000 0.000000
vn -1.000000 0.000000 0.000000
vn 0.086412 0.027567 -0.995878
vn 0.074574 0.043685 -0.996258
vn 0.007656 0.104022 -0.994546
vn -0.049330 0.152781 -0.987028
vn -0.060476 0.165635 -0.984331
vn 0.546635 -0.015342 -0.837231
vn 0.546635 -0.015342 -0.837231
vn 0.546635 -0.015342 0.837231
vn 0.546635 -0.015342 0.837231
vn -0.049867 0.151524 0.987195
vn -0.061117 0.164923 0.984411
vn 0.007295 0.101791 0.994779
vn 0.074445 0.041832 0.996347
vn 0.086192 0.026276 0.995932
vn -0.093551 0.137586 -0.986062
vn -0.070100 0.017534 -0.997386
vn -0.010988 -0.008399 -0.999904
vn -0.038015 0.147339 -0.988355
vn 0.013385 -0.780503 -0.625009
vn 0.019836 -0.863469 -0.504011
vn -0.000000 -0.868410 -0.495848
vn -0.000001 -0.780573 -0.625065
vn 0.027457 -0.942344 0.333517
vn 0.019836 -0.863470 0.504011
vn -0.000000 -0.868410 0.495847
vn 0.000000 -0.942700 0.333643
vn -0.038207 -0.138091 0.989682
vn -0.070100 0.017534 0.997386
vn -0.010988 -0.008399 0.999904
vn 0.003858 -0.148890 0.988846
vn -0.289463 0.948682 -0.127332
vn -0.215145 0.904947 -0.367129
vn -0.095293 0.948194 -0.303064
vn -0.165608 0.985728 -0.030235
vn -0.132932 0.810809 0.570015
vn -0.215145 0.904947 0.367129
vn -0.095293 0.948194 0.303065
vn -0.036682 0.871560 0.488914
vn 1.000000 0.000000 0.000000
vn 1.000000 0.000000 0.000000
vn 1.000000 -0.000000 0.000000
vn 1.000000 -0.000000 -0.000000
vn 1.000000 0.000000 0.000000
vn 1.000000 0.000000 0.000000
vn 1.000000 -0.000000 -0.000000
vn 1.000000 0.000000 0.000000
vn 1.000000 -0.000000 -0.000000
vn 1.000000 -0.000001 -0.000001
vn 1.000000 -0.000001 -0.000000
vn 1.000000 0.000001 -0.000000
vn 1.000000 -0.000002 0.000000
vn -1.000000 0.000000 0.000000
vn -1.000000 0.000000 0.000000
vn -1.000000 0.000000 0.000000
vn -1.000000 0.000000 0.000000
vn -1.000000 0.000000 0.000000
vn -1.000000 0.000000 0.000000
vn -1.000000 0.000000 0.000000
vn -1.000000 0.000000 0.000000
vn -1.000000 0.000000 0.000000
vn -1.000000 0.000000 0.000000
vn -1.000000 0.000000 0.000000
vn -1.000000 0.000000 0.000000
vn -1.000000 0.000000 0.000000
vn 1.000000 -0.000000 0.000000
vn 1.000000 -0.000000 0.000000
vn 1.000000 0.000000 0.000000
vn 1.000000 0.000000 0.000000
vn 1.000000 -0.000001 0.000000
vn 1.000000 -0.000001 0.000000
vn 1.000000 -0.000001 0.000000
vn 1.000000 -0.000001 0.000000
vn 1.000000 0.000000 0.000000
vn 1.000000 0.000000 0.000000
vn 1.000000 0.000000 0.000000
vn 1.000000 0.000000 0.000000
vn 1.000000 0.000000 0.000000
vn 1.000000 -0.000000 0.000000
vn 1.000000 -0.000000 0.000000
vn 1.000000 -0.000000 0.000000
vn 1.000000 -0.000000 0.000000
vn 1.000000 -0.000000 0.000000
vn 1.000000 -0.000000 0.000000
vn 1.000000 -0.000000 0.000000
vn 1.000000 0.000001 0.000000
vn 1.000000 0.000001 0.000000
vn 1.000000 0.000000 0.000000
vn 1.000000 0.000000 0.000000
vn 0.000000 -0.000000 1.000000
vn 0.000000 -0.000000 1.000000
vn 0.000000 -0.149789 0.988718
vn 0.000000 -0.149789 0.988718
vn 0.000000 0.866025 0.500000
vn 0.000000 0.866025 0.500000
vn 0.000000 0.797657 0.603111
vn 0.000000 0.797657 0.603111
vn 0.000000 0.866026 -0.500000
vn 0.000000 0.866026 -0.500000
vn 0.000000 0.928925 -0.370267
vn 0.000000 0.928925 -0.370267
vn 0.000000 0.000000 -1.000000
vn 0.000000 0.000000 -1.000000
vn 0.000000 0.149789 -0.988718
vn 0.000000 0.149789 -0.988718
vn 0.000000 -0.876157 0.482026
vn 0.000000 -0.876157 0.482026
vn 0.000000 -0.943459 0.331489
vn 0.000000 -0.943459 0.331489
vn 0.000000 -0.876157 -0.482026
vn 0.000000 -0.876157 -0.482026
vn 0.000000 -0.806950 -0.590620
vn 0.000000 -0.806950 -0.590620
vn 0.028071 0.984321 0.174138
vn 0.076215 0.920801 0.382514
vn 0.028071 0.984321 -0.174138
vn -0.028590 0.996826 0.074307
vn 0.050474 -0.002136 0.998723
vn 0.053108 -0.161178 0.985495
vn -0.019898 -0.863461 0.504023
vn -0.027544 -0.942342 0.333516
vn -0.019898 -0.863461 -0.504023
vn -0.013427 -0.780502 -0.625009
vn 0.050474 -0.002136 -0.998723
vn 0.046430 0.161232 -0.985824
vn 0.000000 0.149788 0.988718
vn 0.000000 0.149788 0.988718
vn -0.038207 -0.138091 -0.989682
vn 0.003858 -0.148890 -0.988846
vn 0.053108 -0.161178 -0.985495
vn 0.000000 -0.149789 -0.988718
vn 0.000000 -0.149789 -0.988718
vn -0.093551 0.137586 0.986062
vn -0.038015 0.147339 0.988355
vn 0.046430 0.161232 0.985824
vn 0.000000 -0.943459 -0.331489
vn 0.000000 -0.943459 -0.331489
vn -0.289463 0.948682 0.127332
vn -0.165608 0.985728 0.030235
vn -0.028590 0.996826 -0.074307
vn 0.000000 -0.806950 0.590620
vn 0.000000 -0.806950 0.590620
vn -0.132932 0.810809 -0.570015
vn -0.036682 0.871561 -0.488914
vn 0.076215 0.920801 -0.382514
vn 0.000000 0.797657 -0.603111
vn 0.000000 0.797657 -0.603111
vn 0.013385 -0.780503 0.625009
vn -0.000001 -0.780573 0.625065
vn -0.013427 -0.780502 0.625009
vn 0.000000 0.928925 0.370268
vn 0.000000 0.928925 0.370268
vn 0.027457 -0.942344 -0.333517
vn 0.000000 -0.942700 -0.333643
vn -0.027544 -0.942342 -0.333516
s 1
g hoofout
usemtl initialShadingGroup
f 37/54/1 38/4/2 26/5/3 1/6/4
s 2
f 45/2/5 46/47/6 9/66/7 2/63/8
s 3
f 32/60/9 33/56/10 10/48/11 4/11/12
s 4
f 12/51/13 43/13/14 44/49/15 8/14/16
s 5
f 9/67/17 30/15/18 31/62/19 2/1/20
s 6
f 15/16/21 14/79/22 48/18/23 49/19/24
f 14/79/22 13/75/25 47/21/26 48/18/23
f 1/69/27 15/16/21 49/19/24 37/3/28
s 7
f 3/55/29 16/23/30 36/24/31 25/25/32
s 8
f 39/26/33 40/27/34 22/28/35 7/53/36
s 9
f 26/68/37 27/30/38 15/77/39 1/70/40
s 6
f 46/7/41 47/21/26 13/75/25 9/65/42
s 7
f 33/9/43 34/31/44 18/32/45 10/10/46
s 8
f 24/33/47 42/34/48 43/50/49 12/12/50
s 9
f 13/20/51 29/35/52 30/64/53 9/8/54
s 7
f 16/23/30 17/36/55 35/37/56 36/24/31
f 17/36/55 18/32/45 34/31/44 35/37/56
s 8
f 40/27/34 41/38/57 23/39/58 22/28/35
f 41/38/57 42/34/48 24/33/47 23/39/58
s 9
f 13/20/51 14/17/59 28/40/60 29/35/52
f 14/17/59 15/77/39 27/30/38 28/40/60
s 1
f 7/29/61 26/5/3 38/4/2 39/52/62
s 9
f 7/53/63 22/28/64 27/30/38 26/68/37
f 28/40/60 27/30/38 22/28/64 23/39/65
f 29/35/52 28/40/60 23/39/65 24/33/66
f 30/64/53 29/35/52 24/33/66 12/12/67
s 5
f 31/62/19 30/15/18 12/51/68 8/14/69
s 3
f 11/59/70 33/56/10 32/60/9 6/42/71
s 7
f 21/43/72 34/31/44 33/9/43 11/41/73
f 35/37/56 34/31/44 21/43/72 20/44/74
f 36/24/31 35/37/56 20/44/74 19/76/75
f 25/25/32 36/24/31 19/76/75 5/73/76
s 1
f 25/71/77 38/4/2 37/54/1 3/22/78
f 39/52/62 38/4/2 25/71/77 5/46/79
s 8
f 5/72/80 19/45/81 40/27/34 39/26/33
f 19/45/81 20/78/82 41/38/57 40/27/34
f 20/78/82 21/74/83 42/34/48 41/38/57
f 43/50/49 42/34/48 21/74/83 11/57/84
s 4
f 44/49/15 43/13/14 11/58/85 6/61/86
s 2
f 10/48/87 46/47/6 45/2/5 4/11/88
s 6
f 18/32/89 47/21/26 46/7/41 10/10/90
f 48/18/23 47/21/26 18/32/89 17/36/91
f 49/19/24 48/18/23 17/36/91 16/23/92
f 37/3/28 49/19/24 16/23/92 3/55/93
s 13
f 50/80/94 84/81/95 85/82/96 76/83/97
s 14
f 51/84/98 109/85/99 110/86/100 81/87/101
s 15
f 52/88/102 104/89/103 105/90/104 80/91/105
s 16
f 53/92/106 89/93/107 90/94/108 79/95/109
s 17
f 54/96/110 99/97/111 100/98/112 78/99/113
s 18
f 55/100/114 94/101/115 95/102/116 77/103/117
s 19
f 70/104/118 82/105/119 69/106/120 71/107/121
f 72/108/122 107/109/123 70/104/118 71/107/121
f 73/110/124 102/111/125 72/108/122 71/107/121
f 74/112/126 87/113/127 73/110/124 71/107/121
f 75/114/128 97/115/129 74/112/126 71/107/121
f 69/106/120 92/116/130 75/114/128 71/107/121
s 20
f 56/117/131 86/118/132 57/119/133 62/120/134
f 57/119/133 111/121/135 58/122/136 62/120/134
f 58/122/136 106/123/137 59/124/138 62/120/134
f 59/124/138 91/125/139 60/126/140 62/120/134
f 60/126/140 101/127/141 61/128/142 62/120/134
f 61/128/142 96/129/143 56/117/131 62/120/134
s 21
f 83/130/144 84/131/145 50/132/146 63/133/147
f 108/134/148 109/135/149 51/136/150 64/137/151
f 103/138/152 104/139/153 52/140/154 65/141/155
f 88/142/156 89/143/157 53/144/158 66/145/159
f 98/146/160 99/147/161 54/148/162 67/149/163
f 93/150/164 94/151/165 55/152/166 68/153/167
s 26
f 82/154/168 83/155/169 63/156/170 69/157/171
s 27
f 107/158/172 108/159/173 64/160/174 70/161/175
s 28
f 102/162/176 103/163/177 65/164/178 72/165/179
s 29
f 87/166/180 88/167/181 66/168/182 73/169/183
s 30
f 97/170/184 98/171/185 67/172/186 74/173/187
s 31
f 92/174/188 93/175/189 68/176/190 75/177/191
s 18
f 77/103/117 95/102/116 96/178/192 61/179/193
s 17
f 78/99/113 100/98/112 101/180/194 60/181/195
s 16
f 79/95/109 90/94/108 91/182/196 59/183/197
s 15
f 80/91/105 105/90/104 106/184/198 58/185/199
s 14
f 81/87/101 110/86/100 111/186/200 57/187/201
s 13
f 76/83/97 85/82/96 86/188/202 56/189/203
s 26
f 64/160/204 83/155/169 82/154/168 70/161/205
s 21
f 51/136/150 84/131/145 83/130/144 64/137/151
s 13
f 85/82/96 84/81/95 51/84/206 81/87/207
f 86/188/202 85/82/96 81/87/207 57/187/208
s 29
f 67/172/209 88/167/181 87/166/180 74/173/210
s 21
f 54/148/162 89/143/157 88/142/156 67/149/163
s 16
f 90/94/108 89/93/107 54/96/211 78/99/212
f 91/182/196 90/94/108 78/99/212 60/181/213
s 31
f 63/156/214 93/175/189 92/174/188 69/157/215
s 21
f 50/132/146 94/151/165 93/150/164 63/133/147
s 18
f 95/102/116 94/101/115 50/80/216 76/83/217
f 96/178/192 95/102/116 76/83/217 56/189/218
s 30
f 68/190/219 98/171/185 97/170/184 75/191/220
s 21
f 55/152/166 99/147/161 98/146/160 68/153/167
s 17
f 100/98/112 99/97/111 55/192/221 77/193/222
f 101/180/194 100/98/112 77/193/222 61/194/223
s 28
f 66/168/224 103/163/177 102/162/176 73/169/225
s 21
f 53/144/158 104/139/153 103/138/152 66/145/159
s 15
f 105/90/104 104/89/103 53/92/226 79/95/227
f 106/184/198 105/90/104 79/95/227 59/183/228
s 27
f 65/164/229 108/159/173 107/158/172 72/165/230
s 21
f 52/140/154 109/135/149 108/134/148 65/141/155
s 14
f 110/86/100 109/85/99 52/195/231 80/196/232
f 111/186/200 110/86/100 80/196/232 58/197/233
